<svg width="986" height="268" viewBox="0 0 986 268" fill="none" xmlns="http://www.w3.org/2000/svg">
<path d="M57.6791 87.1411C58.5096 87.8411 59.0613 88.6611 59.3342 89.6014C59.6071 90.5416 59.7406 91.5418 59.7347 92.6022C59.9061 94.6109 59.7905 96.6441 59.3879 98.7017C58.9772 100.664 58.3711 102.594 57.5696 104.493C55.8791 108.395 53.7378 112.094 51.1456 115.591C48.5453 118.993 45.885 122.255 43.1645 125.377C37.628 131.63 31.3852 137.51 24.4361 143.017C23.6242 143.664 22.7592 143.69 21.8412 143.094C20.853 147.321 19.8128 151.505 18.7207 155.644C17.6368 159.88 16.5529 164.115 15.4689 168.351C15.2473 169.14 14.8576 169.655 14.3 169.896C13.7424 170.136 13.1685 170.185 12.5783 170.043C11.9962 169.996 11.4935 169.75 11.0701 169.304C10.6467 168.858 10.5458 168.241 10.7675 167.451C11.5585 164.3 12.3455 161.102 13.1284 157.856C14.007 154.601 14.8418 151.399 15.6329 148.248C17.0808 142.633 18.4891 137.117 19.8577 131.701C21.2182 126.19 22.5745 120.63 23.9268 115.023C25.2079 109.711 26.3456 104.411 27.3397 99.1233C28.3257 93.74 29.0166 88.2855 29.4124 82.7599C29.4509 82.0821 29.7927 81.5712 30.4378 81.2272C31.0748 80.7874 31.6883 80.6387 32.2786 80.7811C33.7542 81.137 34.3659 82.0964 34.1139 83.6595C33.7344 89.3765 32.9805 95.2217 31.8522 101.195C32.2897 100.676 32.6834 100.209 33.0333 99.7937C33.4708 99.2747 33.9083 98.7556 34.3457 98.2366C36.8912 95.3216 39.6647 92.8209 42.6662 90.7342C44.115 89.6471 45.6636 88.5997 47.3119 87.5919C48.9602 86.5842 50.689 85.955 52.4982 85.7043C54.5863 85.3335 56.3132 85.8124 57.6791 87.1411ZM55.0611 93.7235C55.0203 93.2452 54.9673 92.6235 54.902 91.8582C54.8285 90.9974 54.4489 90.4998 53.763 90.3657C53.1728 90.2233 52.5114 90.3761 51.7788 90.824C51.1337 91.168 50.5802 91.4561 50.1182 91.6882C44.4081 94.7768 39.5611 98.9478 35.5772 104.201C31.6808 109.351 29.0413 115.117 27.6586 121.497C27.5874 121.792 27.3769 122.147 27.0269 122.563C26.5287 124.628 26.0305 126.694 25.5323 128.76C25.0259 130.73 24.5236 132.748 24.0254 134.814C23.8749 135.309 23.7244 135.803 23.5739 136.298C23.4234 136.792 23.2729 137.287 23.1223 137.782C26.195 135.4 29.112 132.887 31.8732 130.243C34.6344 127.598 37.2878 124.819 39.8332 121.904C42.2912 119.093 44.5975 116.198 46.7522 113.22C49.0025 110.234 50.9496 107.081 52.5934 103.762C53.3237 102.158 53.9065 100.518 54.3417 98.8431C54.8725 97.1599 55.1123 95.4534 55.0611 93.7235Z" fill="#E5BD5B"/>
<path d="M100.351 118.62C101.116 118.555 101.715 118.793 102.146 119.334C102.57 119.78 102.806 120.289 102.855 120.863C102.904 121.437 102.761 122.028 102.428 122.634C102.086 123.145 101.532 123.433 100.767 123.498C97.515 123.776 94.2669 124.101 91.0228 124.474C87.7788 124.847 84.547 125.364 81.3275 126.024C80.1003 126.321 78.8253 126.623 77.5025 126.928C76.2753 127.226 75.0604 127.666 73.8577 128.251L73.7142 128.263C73.9101 130.559 73.4719 132.764 72.3998 134.879C71.3114 136.802 69.8514 138.324 68.0199 139.443C66.1803 140.468 64.2124 141.117 62.1162 141.392C59.9244 141.676 57.9665 141.313 56.2424 140.304C54.5184 139.295 53.4629 137.65 53.0757 135.371C52.6967 133.187 52.8958 131.002 53.6728 128.816C54.3541 126.639 55.3428 124.676 56.6389 122.927C57.1475 122.113 57.7967 121.817 58.5864 122.038C59.368 122.164 59.9786 122.546 60.4183 123.183C60.4895 122.888 60.752 122.576 61.2058 122.248C62.7095 120.675 64.4382 120.046 66.3921 120.361C68.4416 120.668 70.1574 121.581 71.5396 123.101C71.6434 123.189 71.8073 123.416 72.0313 123.782L74.5405 122.701C78.7551 121.281 83.0105 120.34 87.3067 119.877C91.6985 119.406 96.0466 118.987 100.351 118.62ZM64.4058 125.878C64.1596 126.38 64.1404 126.719 64.348 126.894C64.6513 127.061 65.0461 127.172 65.5326 127.227C66.3059 127.257 67.1027 126.996 67.9227 126.445C67.3874 125.816 66.7726 125.387 66.0786 125.157C65.472 124.823 64.9144 125.063 64.4058 125.878ZM65.7631 135.011C67.0451 134.227 68.0034 133.038 68.6381 131.442C66.9571 132.067 65.327 132.158 63.7476 131.715C62.4633 131.342 61.4496 130.754 60.7066 129.951C60.0593 129.139 59.6429 128.211 59.4575 127.167C58.7902 128.38 58.2348 129.776 57.7915 131.356C57.4438 132.927 57.5621 134.314 58.1464 135.516C58.4905 136.162 58.9577 136.555 59.5479 136.698C60.2338 136.832 60.9553 136.818 61.7123 136.658C62.565 136.488 63.318 136.28 63.9713 136.031C64.712 135.679 65.3093 135.339 65.7631 135.011Z" fill="#E5BD5B"/>
<path d="M137.51 115.595C138.267 115.434 138.857 115.576 139.28 116.022C139.704 116.467 139.944 117.025 140.001 117.695C140.05 118.268 139.908 118.859 139.574 119.465C139.232 119.976 138.679 120.264 137.914 120.33C133.729 120.975 129.957 122.502 126.598 124.908C123.23 127.219 119.966 129.617 116.806 132.102C115.532 132.982 114.262 133.909 112.997 134.884C111.827 135.851 110.605 136.774 109.331 137.654C109.357 139.097 109.109 140.708 108.587 142.486C107.312 146.738 104.903 150.123 101.36 152.641C97.7295 155.263 93.694 156.523 89.2531 156.42C88.1846 156.319 87.1121 156.169 86.0354 155.972C84.8631 155.783 83.9451 155.187 83.2814 154.184C82.6178 153.18 82.3804 152.093 82.5695 150.92C82.6629 149.756 82.9557 148.671 83.448 147.666C84.6158 145.543 86.1592 143.87 88.0781 142.646C89.9971 141.423 92.0321 140.43 94.1831 139.668C96.0554 139.027 97.8279 138.346 99.5007 137.625C101.173 136.904 102.786 136.044 104.339 135.045C104.298 134.566 104.214 134.14 104.085 133.765C104.053 133.383 103.968 132.956 103.832 132.486C103.19 130.614 102.27 128.862 101.071 127.23C99.9593 125.494 99.2659 123.578 98.9907 121.482C98.74 119.673 98.9798 117.966 99.7102 116.362C100.432 114.663 101.678 113.449 103.446 112.72C104.091 112.376 104.669 112.374 105.18 112.716C105.778 112.954 106.15 113.356 106.295 113.922C106.535 114.479 106.54 115.105 106.31 115.799C106.168 116.39 105.774 116.857 105.129 117.201C104.388 117.553 103.911 118.172 103.698 119.057C103.58 119.934 103.601 120.751 103.762 121.509C104.06 122.736 104.544 123.899 105.216 124.998C105.88 126.001 106.5 127.056 107.076 128.163C107.756 129.358 108.305 130.708 108.722 132.214C110.983 130.479 113.375 128.589 115.898 126.543C119.154 124.049 122.522 121.739 126.001 119.611C129.481 117.484 133.317 116.145 137.51 115.595ZM95.675 150.38C97.8179 149.523 99.633 148.212 101.12 146.447C102.52 144.786 103.517 142.919 104.111 140.845C102.908 141.429 101.749 141.962 100.634 142.442C99.4234 142.931 98.2085 143.372 96.9895 143.765C95.3085 144.39 93.5401 145.119 91.6841 145.952C89.7407 146.888 88.3682 148.306 87.5668 150.205C87.5749 150.301 87.5393 150.448 87.46 150.648C87.285 150.855 87.2057 151.055 87.222 151.246C87.3095 151.142 87.6046 151.213 88.1074 151.46C88.5938 151.514 89.0283 151.526 89.4109 151.493C89.8017 151.556 90.2362 151.567 90.7145 151.526C92.3487 151.483 94.0022 151.101 95.675 150.38Z" fill="#E5BD5B"/>
<path d="M207.527 76.0924C208.292 76.0272 208.887 76.2173 209.31 76.663C209.733 77.1086 209.97 77.6184 210.019 78.1923C210.068 78.7662 209.925 79.3564 209.592 79.963C209.25 80.4739 208.696 80.762 207.931 80.8273C204.687 81.2003 200.486 81.655 195.329 82.1913C190.26 82.6238 185.003 83.1204 179.559 83.6811C174.115 84.2419 168.814 84.7904 163.657 85.3267C158.588 85.7592 154.427 86.1141 151.175 86.3915C150.636 87.9791 150.097 89.5667 149.558 91.1542C149.106 92.638 148.659 94.1695 148.215 95.7489C146.267 102.274 144.414 108.791 142.657 115.3C140.995 121.801 139.538 128.429 138.283 135.184C137.108 141.739 136.232 148.414 135.656 155.208C135.406 157.927 135.312 160.777 135.373 163.759C135.339 166.748 136.242 169.417 138.08 171.766C138.52 172.402 138.668 173.016 138.526 173.606C138.384 174.197 138.085 174.656 137.632 174.983C137.082 175.319 136.469 175.468 135.791 175.429C135.121 175.486 134.567 175.197 134.127 174.56C131.953 171.662 130.81 168.435 130.7 164.88C130.502 161.428 130.547 158.004 130.835 154.607C131.769 142.966 133.684 131.53 136.58 120.299C139.38 109.076 142.523 97.9206 146.009 86.8322C140.366 87.3136 134.774 87.8388 129.235 88.4077C123.687 88.8809 118.087 89.3105 112.435 89.6962C111.67 89.7615 111.076 89.5713 110.652 89.1257C110.229 88.6801 109.993 88.1703 109.944 87.5964C109.887 86.9268 110.029 86.3366 110.371 85.8257C110.713 85.3148 111.266 85.0267 112.031 84.9614C118.058 84.4474 123.988 83.9415 129.823 83.4437C135.658 82.946 141.536 82.3963 147.458 81.7948C148.014 80.3985 148.517 78.9585 148.969 77.4748C149.42 75.991 149.876 74.5551 150.336 73.167C150.47 72.4811 150.764 71.9743 151.217 71.6465C151.759 71.215 152.372 71.0663 153.058 71.2005C153.648 71.3428 154.159 71.6846 154.591 72.2259C155.118 72.759 155.267 73.3726 155.037 74.0666C154.197 76.6434 153.44 79.0685 152.767 81.3419C155.828 81.0808 159.798 80.7422 164.676 80.326C169.642 79.8061 174.755 79.3217 180.016 78.8729C185.364 78.3203 190.525 77.8318 195.499 77.4075C200.465 76.8876 204.474 76.4492 207.527 76.0924Z" fill="#E5BD5B"/>
<path d="M223.467 108.262C224.232 108.197 224.827 108.387 225.25 108.833C225.673 109.278 225.914 109.836 225.971 110.505C226.02 111.079 225.873 111.622 225.531 112.133C225.19 112.643 224.636 112.932 223.871 112.997C214.88 113.764 207.185 117.311 200.788 123.637C199.722 124.692 198.616 125.846 197.47 127.1C196.316 128.258 195.063 129.377 193.71 130.456C192.444 131.431 191.062 132.175 189.564 132.688C188.067 133.201 186.484 133.288 184.817 132.948C183.637 132.664 182.584 132.176 181.658 131.484C180.827 130.784 180.08 129.932 179.416 128.929C179.209 128.754 178.985 128.388 178.744 127.83C178.504 127.273 178.216 126.719 177.88 126.17C177.544 125.62 177.212 125.119 176.885 124.665C176.653 124.203 176.441 123.98 176.25 123.996C175.963 124.021 175.64 124.193 175.282 124.512C174.924 124.832 174.657 125.096 174.482 125.303C174.307 125.511 174.084 125.723 173.814 125.938C173.543 126.154 173.273 126.37 173.002 126.586C172.461 127.017 171.919 127.449 171.378 127.88C170.829 128.216 170.327 128.548 169.873 128.876C167.692 130.411 165.267 131.918 162.599 133.399C161.588 133.967 160.481 134.543 159.278 135.127C158.067 135.616 156.848 136.009 155.621 136.306C154.482 136.5 153.282 136.554 152.022 136.469C150.762 136.384 149.574 136.003 148.456 135.328C146.309 133.873 145.129 131.902 144.917 129.415C144.609 126.936 144.891 124.6 145.764 122.406C146.795 119.813 148.402 117.749 150.583 116.214C152.669 114.687 154.987 113.622 157.537 113.019C158.955 112.705 160.334 112.491 161.673 112.377C163.1 112.159 164.535 112.037 165.978 112.01C167.229 112 168.441 112.089 169.613 112.278C170.881 112.459 172.034 112.987 173.073 113.862C173.6 114.395 173.844 115 173.806 115.678C173.767 116.356 173.529 116.954 173.092 117.473C172.742 117.888 172.284 118.168 171.718 118.313C171.144 118.362 170.546 118.124 169.923 117.599C169.092 116.899 167.96 116.61 166.525 116.733C165.09 116.855 163.847 116.961 162.794 117.051C161.455 117.165 160.124 117.375 158.802 117.68C157.471 117.89 156.16 118.339 154.87 119.028C154.042 119.484 153.234 120.179 152.446 121.113C151.555 121.96 150.867 122.934 150.383 124.035C149.795 125.049 149.455 126.138 149.361 127.302C149.26 128.37 149.541 129.406 150.204 130.409C150.756 131.229 151.518 131.694 152.491 131.804C153.368 131.922 154.325 131.84 155.361 131.559C156.388 131.182 157.364 130.762 158.288 130.298C159.3 129.73 160.128 129.274 160.773 128.93C163.17 127.665 165.32 126.326 167.223 124.911C168.218 124.152 169.209 123.344 170.196 122.489C171.182 121.634 172.225 120.871 173.324 120.199C174.415 119.432 175.59 119.091 176.85 119.176C178.11 119.261 179.171 119.845 180.034 120.928C180.674 121.644 181.225 122.464 181.689 123.388C182.154 124.312 182.662 125.184 183.213 126.004C183.765 126.824 184.348 127.448 184.963 127.878C185.673 128.299 186.546 128.369 187.582 128.088C188.897 127.687 190.187 126.999 191.453 126.023C191.453 126.023 191.636 125.911 192.002 125.688L191.99 125.544C192.086 125.536 192.177 125.48 192.265 125.376C192.44 125.168 192.571 125.013 192.658 124.909C192.842 124.797 193.021 124.637 193.196 124.43C193.641 124.006 194.039 123.587 194.389 123.172C194.739 122.756 195.137 122.337 195.582 121.914C196.553 120.867 197.528 119.869 198.506 118.918C199.581 117.959 200.707 117.044 201.885 116.173C205.054 113.783 208.462 111.951 212.111 110.676C215.76 109.401 219.545 108.597 223.467 108.262Z" fill="#E5BD5B"/>
<path d="M271.402 104.173C272.933 104.042 273.763 104.742 273.894 106.273C274.047 106.934 273.904 107.524 273.467 108.043C273.021 108.467 272.464 108.707 271.794 108.764C271.029 108.829 270.216 108.899 269.355 108.972C268.59 109.038 267.833 109.198 267.084 109.455L266.223 109.528C266.04 109.64 265.853 109.705 265.661 109.721C265.47 109.737 265.283 109.801 265.1 109.913L262.984 110.527C262.235 110.784 261.49 111.088 260.75 111.441C260.096 111.689 259.399 111.989 258.659 112.342C258.197 112.574 257.874 112.746 257.691 112.858C257.5 112.874 257.173 112.998 256.711 113.23C256.44 113.446 256.122 113.666 255.756 113.89C255.477 114.01 255.202 114.178 254.932 114.394C254.199 114.842 253.514 115.285 252.877 115.725C252.336 116.157 251.703 116.644 250.979 117.188C250.621 117.507 250.306 117.775 250.036 117.991C249.861 118.199 249.638 118.41 249.367 118.626C249.105 118.938 248.842 119.249 248.58 119.56C248.309 119.776 247.995 120.044 247.637 120.363C247.103 120.891 246.527 121.47 245.906 122.101C245.381 122.724 244.856 123.347 244.331 123.969C243.177 125.128 242.076 126.33 241.026 127.575C239.968 128.726 238.862 129.88 237.708 131.038C236.459 132.204 235.209 133.371 233.96 134.537C232.71 135.704 231.397 136.683 230.019 137.475C228.467 138.474 226.961 138.892 225.501 138.727C224.138 138.555 222.925 137.887 221.862 136.725C221.327 136.097 220.978 135.404 220.818 134.647C220.569 133.993 220.364 133.288 220.204 132.531C219.865 130.826 219.714 129.056 219.751 127.223C219.779 125.293 219.907 123.403 220.134 121.553C220.266 119.712 220.494 117.861 220.817 116.003C221.368 112.295 222.022 108.674 222.781 105.141C223.444 101.616 224.298 98.0746 225.343 94.5168C226.285 90.8716 227.413 87.1622 228.729 83.3887C229.268 81.8012 229.812 80.2614 230.359 78.7695C230.898 77.182 231.489 75.6381 232.131 74.1381C232.774 72.638 233.517 71.1776 234.359 69.7569C235.201 68.3361 236.199 67.0466 237.353 65.8884C238.594 64.6263 240.043 63.5392 241.7 62.6271C243.452 61.7069 245.273 61.5997 247.164 62.3055C248.855 62.932 249.962 64.042 250.483 65.6355C251.1 67.2208 251.382 68.8346 251.33 70.477C251.253 71.8325 250.984 73.2043 250.525 74.5924C250.161 75.9723 249.701 77.3604 249.146 78.7566C246.694 85.0357 243.481 90.8499 239.505 96.1992C235.53 101.548 231.19 106.591 226.488 111.328C226.392 111.336 226.349 111.388 226.357 111.484C226.357 111.484 226.309 111.488 226.213 111.496C225.898 113.45 225.579 115.356 225.256 117.214C225.02 118.969 224.793 120.819 224.573 122.764C224.417 124.319 224.356 125.866 224.391 127.405C224.377 128.369 224.454 129.278 224.623 130.131L224.783 131.996L224.938 132.127L224.951 132.271C224.967 132.462 225.027 132.602 225.131 132.689C225.139 132.785 225.151 132.928 225.167 133.119C225.176 133.215 225.228 133.259 225.323 133.251C225.331 133.346 225.34 133.442 225.348 133.538C225.443 133.529 225.495 133.573 225.503 133.669C225.52 133.86 225.576 133.952 225.671 133.944C225.671 133.944 225.723 133.987 225.827 134.075L226.401 134.026C226.305 134.034 226.258 134.038 226.258 134.038C226.266 134.134 226.361 134.126 226.544 134.014C226.736 133.997 226.875 133.937 226.963 133.833L227.25 133.809C227.241 133.713 227.285 133.661 227.381 133.653C227.747 133.429 228.066 133.209 228.336 132.994C228.607 132.778 228.878 132.562 229.148 132.346C229.419 132.131 229.737 131.911 230.104 131.687C231.369 130.712 232.4 129.805 233.196 128.966C234.349 127.808 235.455 126.654 236.513 125.504C237.571 124.353 238.629 123.203 239.687 122.053C241.804 119.753 243.976 117.544 246.204 115.427C248.424 113.215 250.911 111.316 253.667 109.732C259.265 106.461 265.177 104.608 271.402 104.173ZM233.989 82.3619C232.911 85.5371 231.841 88.8078 230.78 92.1743C229.805 95.4369 228.935 98.787 228.168 102.225C228.177 102.32 228.137 102.42 228.049 102.524C228.058 102.619 228.066 102.715 228.074 102.811C231.852 98.5381 235.284 94.1506 238.368 89.6481C241.445 85.05 243.906 80.0225 245.753 74.5658L245.729 74.2789C245.816 74.175 245.86 74.1231 245.86 74.1231C245.852 74.0275 245.891 73.9278 245.979 73.8239C246.058 73.6245 246.094 73.4769 246.086 73.3813C246.077 73.2856 246.113 73.1381 246.192 72.9386C246.343 72.444 246.481 71.806 246.607 71.0244C246.591 70.8331 246.575 70.6418 246.558 70.4505C246.638 70.251 246.669 70.0556 246.653 69.8643L246.64 69.7209C246.632 69.6252 246.628 69.5774 246.628 69.5774C246.724 69.5692 246.768 69.5173 246.759 69.4217L246.674 68.4173C246.57 68.3298 246.514 68.2382 246.506 68.1426C246.49 67.9513 246.434 67.8597 246.338 67.8679C246.33 67.7722 246.317 67.6287 246.301 67.4374L246.289 67.294C246.185 67.2065 246.133 67.1627 246.133 67.1627C246.125 67.0671 246.069 66.9755 245.965 66.888C245.973 66.9837 245.926 66.9877 245.822 66.9002L245.81 66.7568C245.714 66.7649 245.662 66.7212 245.654 66.6255L245.51 66.6378C245.51 66.6378 245.411 66.5981 245.211 66.5188L244.207 66.6044C244.111 66.6126 244.067 66.6645 244.076 66.7602C243.789 66.7846 243.601 66.8488 243.514 66.9526L243.227 66.9771C243.044 67.089 242.908 67.1969 242.821 67.3008C242.733 67.4046 242.598 67.5125 242.415 67.6244C242.049 67.8484 241.778 68.0642 241.603 68.2718C241.516 68.3756 241.341 68.5832 241.078 68.8947C240.545 69.4219 240.064 69.9928 239.634 70.6076C239.022 71.3342 238.632 71.8492 238.466 72.1525C237.957 72.9667 237.623 73.5732 237.465 73.9722C236.814 75.3766 236.21 76.7769 235.655 78.1732C235.1 79.5694 234.544 80.9657 233.989 82.3619Z" fill="#E5BD5B"/>
<path d="M321.554 100.473C322.073 100.91 322.361 101.464 322.418 102.133C322.467 102.707 322.273 103.254 321.835 103.773C321.485 104.188 321.135 104.603 320.785 105.018C320.427 105.338 320.073 105.706 319.723 106.121C318.227 107.79 316.832 109.499 315.536 111.247C314.231 112.9 312.827 114.513 311.324 116.087C308.237 119.433 304.702 122.047 300.72 123.928C296.92 125.698 292.94 126.471 288.778 126.248C284.711 126.017 280.898 124.8 277.338 122.599C275.606 121.494 274.057 120.277 272.691 118.949C271.325 117.62 270.226 116.028 269.393 114.172C268.465 112.324 268.114 110.475 268.342 108.625C268.466 106.688 269.032 104.857 270.041 103.133C270.717 102.015 271.596 101.025 272.678 100.162C273.848 99.1949 275.087 98.463 276.393 97.9662C277.978 97.3492 279.417 97.2746 280.71 97.7425C282.385 98.1777 283.539 99.2836 284.172 101.06C284.805 102.837 284.753 104.479 284.014 105.987C283.697 106.785 283.224 107.452 282.595 107.987C282.054 108.419 281.413 108.811 280.672 109.163C279.565 109.739 278.346 110.132 277.015 110.342C275.78 110.544 274.532 110.602 273.273 110.517L272.986 110.541L273.022 110.972C273.039 111.163 273.051 111.307 273.059 111.402C273.155 111.394 273.207 111.438 273.215 111.533C273.455 112.091 273.583 112.465 273.6 112.657C273.695 112.649 273.747 112.692 273.755 112.788C273.859 112.876 273.915 112.967 273.923 113.063C273.931 113.158 273.987 113.25 274.091 113.337C274.315 113.704 274.535 114.022 274.751 114.293C274.975 114.659 275.191 114.93 275.398 115.105L275.554 115.236C275.562 115.332 275.614 115.375 275.71 115.367C275.718 115.463 275.826 115.598 276.033 115.773C276.353 116.131 276.928 116.66 277.758 117.36C278.174 117.71 278.533 117.969 278.836 118.136C279.044 118.31 279.195 118.394 279.291 118.386C279.299 118.481 279.351 118.525 279.447 118.517L279.603 118.648C280.313 119.069 280.971 119.447 281.578 119.78C282.28 120.106 283.03 120.427 283.828 120.745C286.812 121.839 290.109 122.088 293.719 121.491L294.293 121.442C294.293 121.442 294.385 121.386 294.568 121.274L294.711 121.261C294.998 121.237 295.421 121.105 295.978 120.864C296.448 120.728 296.871 120.596 297.245 120.467C297.62 120.339 298.038 120.159 298.5 119.927C298.962 119.695 299.284 119.523 299.467 119.411C299.746 119.29 300.116 119.114 300.578 118.882C300.945 118.658 301.311 118.434 301.677 118.21C302.044 117.986 302.458 117.758 302.92 117.526C304.368 116.439 305.718 115.312 306.967 114.146C307.675 113.411 308.339 112.728 308.96 112.097C309.572 111.371 310.181 110.596 310.785 109.774C312.01 108.32 313.231 106.819 314.448 105.27C315.664 103.721 316.981 102.212 318.397 100.742C318.843 100.319 319.352 100.082 319.926 100.033C320.492 99.8888 321.034 100.035 321.554 100.473ZM278.883 105.124C278.97 105.021 279.014 104.969 279.014 104.969C278.918 104.977 278.874 105.029 278.883 105.124ZM273.861 105.553C273.773 105.657 273.734 105.756 273.742 105.852C273.742 105.852 273.698 105.904 273.611 106.008C274.488 106.126 275.396 106.048 276.337 105.775L276.911 105.726C277.102 105.71 277.245 105.698 277.341 105.69C277.428 105.586 277.568 105.526 277.759 105.509C277.942 105.397 278.082 105.337 278.177 105.329C278.369 105.313 278.556 105.249 278.739 105.137L278.883 105.124L278.87 104.981L279.014 104.969C279.197 104.857 279.288 104.801 279.288 104.801C279.376 104.697 279.511 104.589 279.694 104.477L279.957 104.166C279.949 104.07 279.992 104.018 280.088 104.01L279.978 102.719C279.874 102.631 279.814 102.492 279.798 102.3C279.702 102.309 279.65 102.265 279.642 102.169L279.486 102.038L279.331 101.907L278.613 101.968C278.518 101.976 278.426 102.032 278.339 102.136C278.339 102.136 278.291 102.14 278.195 102.148C278.004 102.164 277.725 102.285 277.359 102.509L277.215 102.521C277.119 102.529 277.076 102.581 277.084 102.677C276.709 102.805 276.252 103.085 275.71 103.516C275.344 103.74 275.121 103.952 275.042 104.151C275.209 103.848 275.205 103.8 275.03 104.008C274.95 104.207 274.863 104.311 274.767 104.319C274.592 104.527 274.465 104.731 274.386 104.93C274.29 104.938 274.203 105.042 274.123 105.241C274.036 105.345 273.944 105.401 273.849 105.409L273.861 105.553ZM279.486 102.038C279.486 102.038 279.434 101.994 279.331 101.907C279.339 102.002 279.391 102.046 279.486 102.038Z" fill="#E5BD5B"/>
<path d="M357.072 96.8647C357.829 96.7038 358.419 96.8461 358.842 97.2918C359.266 97.7374 359.506 98.295 359.563 98.9646C359.612 99.5385 359.47 100.129 359.136 100.735C358.794 101.246 358.241 101.534 357.476 101.6C353.291 102.246 349.519 103.772 346.16 106.178C342.792 108.489 339.528 110.887 336.368 113.372C335.094 114.252 333.824 115.179 332.558 116.154C331.388 117.121 330.166 118.044 328.893 118.924C328.919 120.367 328.671 121.978 328.149 123.756C326.873 128.008 324.464 131.393 320.922 133.911C317.291 136.533 313.256 137.793 308.815 137.69C307.747 137.589 306.674 137.439 305.597 137.242C304.425 137.053 303.507 136.457 302.843 135.454C302.18 134.45 301.942 133.363 302.131 132.19C302.225 131.026 302.518 129.941 303.01 128.936C304.178 126.813 305.721 125.14 307.64 123.916C309.559 122.693 311.594 121.7 313.745 120.938C315.617 120.297 317.39 119.616 319.063 118.895C320.735 118.174 322.348 117.314 323.901 116.315C323.86 115.836 323.775 115.41 323.647 115.035C323.615 114.653 323.53 114.227 323.394 113.756C322.752 111.884 321.832 110.132 320.633 108.5C319.521 106.764 318.828 104.848 318.553 102.752C318.302 100.943 318.542 99.2362 319.272 97.6324C319.994 95.9328 321.24 94.7186 323.008 93.9896C323.653 93.6456 324.231 93.6444 324.742 93.9862C325.34 94.2242 325.712 94.6261 325.857 95.1919C326.097 95.7495 326.102 96.3753 325.872 97.0693C325.73 97.6596 325.336 98.1267 324.691 98.4708C323.95 98.8231 323.473 99.4418 323.26 100.327C323.142 101.204 323.163 102.022 323.324 102.779C323.622 104.006 324.106 105.169 324.778 106.268C325.442 107.271 326.062 108.326 326.638 109.433C327.318 110.628 327.867 111.978 328.284 113.484C330.545 111.749 332.937 109.859 335.46 107.813C338.716 105.32 342.084 103.009 345.563 100.881C349.043 98.754 352.879 97.4151 357.072 96.8647ZM315.237 131.65C317.38 130.793 319.195 129.482 320.682 127.717C322.082 126.056 323.079 124.189 323.673 122.115C322.47 122.699 321.311 123.232 320.196 123.712C318.985 124.201 317.77 124.642 316.551 125.035C314.87 125.66 313.102 126.389 311.246 127.222C309.303 128.158 307.93 129.576 307.129 131.475C307.137 131.571 307.101 131.718 307.022 131.918C306.847 132.125 306.768 132.325 306.784 132.516C306.871 132.412 307.167 132.483 307.669 132.73C308.156 132.784 308.59 132.796 308.973 132.763C309.364 132.826 309.798 132.837 310.276 132.796C311.911 132.753 313.564 132.371 315.237 131.65Z" fill="#E5BD5B"/>
<path d="M461.744 87.9355C462.501 87.7746 463.135 87.8651 463.646 88.2069C464.252 88.5405 464.628 88.9902 464.773 89.556C465.013 90.1136 465.014 90.6916 464.776 91.29C464.634 91.8802 464.184 92.2558 463.427 92.4167C461.268 93.0826 459.16 93.7923 457.105 94.5458C455.05 95.2992 453.054 96.192 451.119 97.2242C449.184 98.2565 447.261 99.4322 445.35 100.751C444.53 101.303 443.71 101.855 442.89 102.406C442.07 102.958 441.31 103.649 440.61 104.48C439.893 105.119 439.173 105.71 438.449 106.254C437.82 106.789 436.979 107.102 435.927 107.192C433.919 107.363 432.123 106.649 430.542 105.05C429.495 104.079 428.724 102.94 428.227 101.634C427.818 100.224 427.504 98.8052 427.286 97.3786C427.04 97.8813 426.798 98.4319 426.56 99.0303C426.314 99.533 426.02 100.04 425.678 100.551C424.597 102.57 423.469 104.593 422.293 106.62C421.117 108.648 419.73 110.452 418.13 112.034C417.335 112.872 416.392 113.676 415.301 114.443C414.298 115.107 413.234 115.631 412.111 116.016C410.988 116.401 409.844 116.546 408.68 116.453C407.428 116.463 406.244 116.131 405.126 115.455C403.705 114.613 402.699 113.543 402.106 112.245C401.418 110.954 401.013 109.592 400.891 108.157C400.76 106.627 400.92 105.12 401.372 103.636C401.72 102.065 402.227 100.672 402.895 99.4593C404.221 96.9374 406.066 94.853 408.431 93.2061C410.796 91.5591 413.441 90.9481 416.368 91.3728C417.054 91.507 417.565 91.8488 417.901 92.3983C418.237 92.9477 418.333 93.5175 418.191 94.1078C418.049 94.698 417.707 95.2089 417.166 95.6405C416.712 95.9682 416.19 96.0609 415.6 95.9186C415.4 95.8393 415.205 95.8077 415.013 95.8241L414.87 95.8363L412.861 96.0077C412.766 96.0158 412.722 96.0677 412.73 96.1634C412.73 96.1634 412.682 96.1675 412.586 96.1756C412.395 96.1919 412.116 96.3121 411.75 96.536L411.332 96.7162L411.188 96.7285C410.918 96.9442 410.647 97.16 410.376 97.3758C410.098 97.4959 409.871 97.6598 409.696 97.8674L409.565 98.0232C409.469 98.0313 409.425 98.0832 409.433 98.1789C409.433 98.1789 409.386 98.183 409.29 98.1911C409.115 98.3987 409.031 98.5504 409.04 98.646C408.952 98.7498 408.817 98.8577 408.634 98.9697C408.109 99.5926 407.719 100.108 407.465 100.515L407.333 100.67C407.342 100.766 407.258 100.918 407.083 101.125C406.996 101.229 406.873 101.48 406.714 101.879L406 103.675L405.857 103.687L405.869 103.83C405.877 103.926 405.837 104.026 405.75 104.13C405.766 104.321 405.695 104.616 405.536 105.015C405.553 105.206 405.565 105.35 405.573 105.445C405.486 105.549 405.45 105.697 405.466 105.888C405.474 105.984 405.491 106.175 405.515 106.462C405.436 106.661 405.392 106.713 405.384 106.618C405.329 107.104 405.338 107.778 405.412 108.639L405.568 108.77L405.604 109.2C405.845 109.758 405.969 110.084 405.977 110.18C405.977 110.18 406.029 110.224 406.133 110.311C406.141 110.407 406.193 110.451 406.288 110.443C406.288 110.443 406.292 110.49 406.301 110.586C406.404 110.674 406.46 110.765 406.469 110.861C406.469 110.861 406.52 110.905 406.624 110.992C406.624 110.992 406.672 110.988 406.768 110.98C406.776 111.075 406.884 111.211 407.091 111.386L407.247 111.517C407.646 111.676 407.897 111.799 408.001 111.886C407.794 111.711 407.79 111.663 407.989 111.743C408.093 111.83 408.197 111.918 408.3 112.005C408.587 111.981 408.831 112.008 409.03 112.087C408.831 112.008 408.831 112.008 409.03 112.087C409.126 112.079 409.221 112.071 409.317 112.063L410.321 111.977L410.309 111.834C410.596 111.809 411.018 111.677 411.576 111.437C411.672 111.429 411.807 111.321 411.982 111.113C412.078 111.105 412.173 111.097 412.269 111.089C412.356 110.985 412.448 110.929 412.544 110.921C412.719 110.713 412.854 110.605 412.95 110.597C413.133 110.485 413.312 110.325 413.487 110.118C413.67 110.006 413.761 109.95 413.761 109.95C413.849 109.846 413.984 109.738 414.167 109.626C414.159 109.53 414.203 109.478 414.299 109.47C414.474 109.263 414.605 109.107 414.692 109.003C414.876 108.891 415.055 108.731 415.23 108.524C415.58 108.108 415.886 107.745 416.148 107.434C416.498 107.018 416.8 106.607 417.055 106.2C417.492 105.681 417.794 105.27 417.961 104.967C418.136 104.759 418.263 104.555 418.343 104.356L418.605 104.045C418.851 103.542 419.101 103.087 419.356 102.68C419.61 102.273 419.908 101.814 420.25 101.303C420.75 100.393 421.203 99.4872 421.608 98.5855C422.1 97.5801 422.597 96.6224 423.097 95.7126C423.589 94.7071 424.082 93.7016 424.574 92.6961C425.066 91.6906 425.559 90.6851 426.051 89.6797C426.297 89.1769 426.535 88.5785 426.765 87.8845C427.091 87.1823 427.333 86.6317 427.491 86.2328C427.9 83.1148 428.464 80.128 429.184 77.2725C429.896 74.3213 430.655 71.3661 431.462 68.4067C432.325 64.961 433.243 61.6068 434.217 58.3442C435.279 54.9777 436.839 51.8096 438.898 48.8399C439.319 48.1295 439.84 47.4588 440.461 46.8278C441.082 46.1967 441.818 45.7967 442.671 45.6276C444.273 45.2019 445.621 45.7613 446.716 47.3058C447.164 48.0384 447.425 48.8351 447.498 49.696C447.572 50.5569 447.597 51.4218 447.575 52.2909C447.457 53.1681 447.339 54.0453 447.221 54.9225C447.191 55.6958 447.117 56.5211 446.999 57.3983C446.32 60.7321 445.246 63.955 443.777 67.0672C442.3 70.0836 440.724 73.0604 439.047 75.9975C438.109 77.4264 437.223 78.899 436.389 80.4154C435.547 81.8362 434.661 83.3088 433.731 84.8334C433.477 85.2404 433.222 85.6475 432.968 86.0546C432.801 86.3579 432.595 86.7609 432.348 87.2636C432.365 87.455 432.294 87.7501 432.135 88.149C431.743 91.4583 431.845 94.9181 432.442 98.5284C432.595 99.1898 432.796 99.8472 433.044 100.5C433.293 101.154 433.772 101.691 434.482 102.112C434.993 102.454 435.388 102.565 435.667 102.445C435.937 102.229 436.296 101.909 436.741 101.486C437.704 100.344 438.822 99.3331 440.096 98.4537C441.465 97.566 442.787 96.6825 444.061 95.803C449.73 92.2363 455.624 89.6138 461.744 87.9355ZM438.479 60.871C437.877 62.8494 437.283 64.9233 436.698 67.093C436.2 69.1588 435.654 71.2287 435.06 73.3027C435.473 72.4967 435.886 71.6906 436.299 70.8846C436.807 70.0704 437.268 69.2603 437.681 68.4543C439.016 66.0281 440.151 63.5226 441.086 60.9377C442.014 58.2571 442.551 55.5136 442.697 52.707C442.68 52.5157 442.668 52.3722 442.66 52.2766C442.739 52.0771 442.771 51.8817 442.755 51.6904C442.492 52.0019 442.194 52.4609 441.86 53.0674C441.097 54.2887 440.434 55.5496 439.871 56.8502C439.403 58.1427 438.939 59.4829 438.479 60.871ZM414.87 95.8363C414.774 95.8445 414.679 95.8526 414.583 95.8608C414.575 95.7651 414.67 95.757 414.87 95.8363Z" fill="#E5BD5B"/>
<path d="M512.952 84.1453C513.471 84.5827 513.759 85.1362 513.816 85.8058C513.865 86.3797 513.671 86.9262 513.234 87.4453C512.884 87.8605 512.534 88.2758 512.184 88.691C511.826 89.0106 511.472 89.378 511.122 89.7933C509.626 91.4625 508.23 93.1713 506.934 94.9198C505.63 96.5726 504.226 98.1858 502.722 99.7593C499.636 103.106 496.101 105.72 492.118 107.601C488.319 109.37 484.338 110.143 480.176 109.92C476.11 109.689 472.297 108.473 468.737 106.272C467.005 105.167 465.456 103.95 464.09 102.621C462.724 101.293 461.625 99.7003 460.792 97.8443C459.863 95.9966 459.513 94.1477 459.74 92.2976C459.864 90.3601 460.431 88.5293 461.44 86.8053C462.115 85.6878 462.994 84.6975 464.077 83.8344C465.247 82.8675 466.485 82.1356 467.792 81.6387C469.377 81.0217 470.816 80.9472 472.108 81.415C473.783 81.8502 474.937 82.9561 475.571 84.7327C476.204 86.5093 476.152 88.1517 475.413 89.6599C475.096 90.4578 474.623 91.1244 473.994 91.6598C473.453 92.0914 472.812 92.4833 472.071 92.8355C470.964 93.4117 469.745 93.8047 468.414 94.0146C467.178 94.2164 465.931 94.2746 464.671 94.1894L464.384 94.2139L464.421 94.6443C464.437 94.8356 464.449 94.9791 464.458 95.0747C464.553 95.0666 464.605 95.1103 464.613 95.206C464.854 95.7636 464.982 96.138 464.998 96.3293C465.094 96.3212 465.146 96.3649 465.154 96.4606C465.258 96.548 465.314 96.6396 465.322 96.7353C465.33 96.8309 465.386 96.9225 465.49 97.01C465.714 97.3763 465.934 97.6947 466.149 97.9654C466.373 98.3317 466.589 98.6023 466.797 98.7773L466.953 98.9085C466.961 99.0042 467.013 99.0479 467.108 99.0398C467.116 99.1354 467.224 99.2708 467.432 99.4457C467.751 99.8039 468.327 100.333 469.157 101.033C469.572 101.383 469.932 101.641 470.235 101.808C470.442 101.983 470.594 102.066 470.69 102.058C470.698 102.154 470.75 102.198 470.845 102.19L471.001 102.321C471.712 102.742 472.37 103.119 472.977 103.453C473.679 103.778 474.429 104.1 475.227 104.417C478.21 105.512 481.508 105.76 485.118 105.163L485.692 105.114C485.692 105.114 485.783 105.058 485.966 104.946L486.11 104.934C486.397 104.91 486.819 104.777 487.377 104.537C487.847 104.4 488.269 104.268 488.644 104.14C489.018 104.011 489.436 103.831 489.898 103.599C490.36 103.367 490.683 103.195 490.866 103.083C491.145 102.963 491.515 102.787 491.977 102.555C492.343 102.331 492.71 102.107 493.076 101.883C493.442 101.659 493.856 101.431 494.318 101.199C495.767 100.112 497.116 98.985 498.366 97.8186C499.074 97.0837 499.738 96.4008 500.359 95.7697C500.971 95.0431 501.579 94.2685 502.184 93.4462C503.409 91.9928 504.629 90.4916 505.846 88.9426C507.063 87.3936 508.379 85.8842 509.796 84.4145C510.241 83.9911 510.751 83.7549 511.325 83.706C511.891 83.5614 512.433 83.7078 512.952 84.1453ZM470.281 88.797C470.369 88.6932 470.412 88.6413 470.412 88.6413C470.317 88.6495 470.273 88.7014 470.281 88.797ZM465.259 89.2254C465.172 89.3292 465.132 89.429 465.14 89.5246C465.14 89.5246 465.097 89.5765 465.009 89.6803C465.886 89.7982 466.795 89.7207 467.735 89.4478L468.309 89.3988C468.5 89.3825 468.644 89.3703 468.74 89.3621C468.827 89.2583 468.966 89.1982 469.158 89.1819C469.341 89.0699 469.48 89.0099 469.576 89.0017C469.767 88.9854 469.954 88.9212 470.138 88.8093L470.281 88.797L470.269 88.6535L470.412 88.6413C470.595 88.5293 470.687 88.4733 470.687 88.4733C470.775 88.3695 470.91 88.2616 471.093 88.1497L471.355 87.8382C471.347 87.7426 471.391 87.6907 471.487 87.6825L471.377 86.3912C471.273 86.3037 471.213 86.1643 471.196 85.973C471.101 85.9812 471.049 85.9374 471.041 85.8418L470.885 85.7105L470.729 85.5793L470.012 85.6405C469.916 85.6487 469.825 85.7046 469.737 85.8084C469.737 85.8084 469.689 85.8125 469.594 85.8207C469.402 85.837 469.124 85.9571 468.757 86.1811L468.614 86.1933C468.518 86.2015 468.474 86.2534 468.483 86.349C468.108 86.4773 467.65 86.7573 467.109 87.1888C466.743 87.4128 466.52 87.6245 466.44 87.8239C466.607 87.5207 466.603 87.4728 466.428 87.6805C466.349 87.8799 466.261 87.9837 466.166 87.9919C465.991 88.1995 465.864 88.4031 465.784 88.6025C465.689 88.6107 465.601 88.7145 465.522 88.914C465.434 89.0178 465.343 89.0738 465.247 89.0819L465.259 89.2254ZM470.885 85.7105C470.885 85.7105 470.833 85.6668 470.729 85.5793C470.737 85.6749 470.789 85.7187 470.885 85.7105Z" fill="#E5BD5B"/>
<path d="M532.373 181.791C533.67 181.889 534.27 182.586 534.172 183.884C534.211 184.458 534.012 184.932 533.576 185.307C533.146 185.601 532.647 185.727 532.079 185.684C531.43 185.635 530.741 185.583 530.011 185.528C529.362 185.479 528.707 185.511 528.046 185.624L527.316 185.569C527.148 185.638 526.983 185.667 526.821 185.654C526.658 185.642 526.493 185.671 526.325 185.739L524.472 185.967C523.811 186.08 523.147 186.234 522.48 186.428C521.9 186.548 521.277 186.705 520.609 186.899C520.192 187.031 519.899 187.131 519.73 187.2C519.568 187.188 519.278 187.247 518.86 187.379C518.605 187.523 518.309 187.664 517.972 187.801C517.723 187.864 517.47 187.967 517.215 188.111C516.541 188.387 515.909 188.665 515.317 188.947C514.805 189.235 514.21 189.557 513.531 189.914C513.188 190.132 512.889 190.314 512.633 190.458C512.459 190.608 512.244 190.755 511.988 190.898C511.727 191.123 511.465 191.348 511.203 191.573C510.948 191.717 510.649 191.899 510.306 192.117C509.789 192.486 509.228 192.893 508.624 193.336C508.1 193.786 507.577 194.236 507.054 194.686C505.932 195.499 504.848 196.355 503.801 197.255C502.761 198.074 501.68 198.89 500.558 199.702C499.356 200.509 498.153 201.315 496.95 202.122C495.748 202.928 494.517 203.57 493.257 204.046C491.823 204.672 490.507 204.817 489.309 204.482C488.192 204.153 487.268 203.431 486.536 202.316C486.174 201.717 485.976 201.091 485.944 200.436C485.824 199.856 485.749 199.238 485.716 198.583C485.664 197.111 485.777 195.611 486.056 194.082C486.34 192.472 486.703 190.909 487.143 189.393C487.503 187.87 487.943 186.354 488.465 184.843C489.427 181.816 490.464 178.877 491.577 176.024C492.608 173.165 493.801 170.319 495.157 167.485C496.437 164.564 497.883 161.614 499.494 158.636C500.16 157.381 500.822 156.167 501.482 154.993C502.147 153.738 502.85 152.527 503.591 151.359C504.331 150.192 505.15 149.071 506.046 147.996C506.943 146.922 507.952 145.979 509.074 145.166C510.283 144.278 511.641 143.565 513.15 143.026C514.74 142.494 516.278 142.65 517.764 143.496C519.094 144.249 519.869 145.327 520.089 146.73C520.391 148.14 520.409 149.528 520.142 150.894C519.895 152.017 519.485 153.128 518.912 154.227C518.421 155.332 517.849 156.431 517.196 157.523C514.296 162.443 510.822 166.871 506.774 170.808C502.725 174.744 498.414 178.375 493.84 181.7C493.759 181.694 493.716 181.732 493.71 181.813C493.71 181.813 493.669 181.81 493.588 181.804C493.06 183.395 492.535 184.946 492.014 186.456C491.579 187.892 491.139 189.408 490.692 191.006C490.351 192.285 490.091 193.571 489.912 194.862C489.77 195.667 489.712 196.438 489.738 197.174L489.619 198.755L489.731 198.886L489.722 199.008C489.71 199.17 489.741 199.295 489.816 199.382C489.81 199.463 489.801 199.585 489.789 199.747C489.782 199.828 489.82 199.871 489.901 199.878C489.895 199.959 489.889 200.04 489.883 200.121C489.964 200.127 490.001 200.171 489.995 200.252C489.983 200.414 490.017 200.498 490.098 200.504C490.098 200.504 490.136 200.548 490.211 200.635L490.698 200.672C490.616 200.666 490.576 200.663 490.576 200.663C490.57 200.744 490.651 200.75 490.819 200.681C490.981 200.693 491.106 200.662 491.193 200.587L491.437 200.605C491.443 200.524 491.486 200.486 491.568 200.493C491.904 200.355 492.2 200.214 492.456 200.07C492.711 199.926 492.967 199.782 493.222 199.639C493.478 199.495 493.774 199.354 494.111 199.216C495.301 198.572 496.286 197.953 497.065 197.359C498.186 196.546 499.267 195.731 500.308 194.912C501.348 194.093 502.389 193.274 503.429 192.455C505.51 190.818 507.626 189.265 509.775 187.795C511.931 186.245 514.269 184.994 516.787 184.042C521.912 182.063 527.107 181.312 532.373 181.791ZM504.032 158.489C502.701 160.998 501.364 163.589 500.02 166.261C498.764 168.858 497.583 171.542 496.477 174.314C496.471 174.395 496.424 174.473 496.337 174.548C496.331 174.629 496.325 174.71 496.319 174.791C500.057 171.729 503.52 168.523 506.709 165.175C509.904 161.745 512.643 157.873 514.925 153.56L514.944 153.316C515.031 153.241 515.075 153.204 515.075 153.204C515.081 153.123 515.127 153.045 515.215 152.97C515.308 152.814 515.358 152.695 515.364 152.614C515.37 152.533 515.42 152.414 515.513 152.258C515.706 151.865 515.908 151.35 516.119 150.713C516.131 150.551 516.143 150.389 516.155 150.227C516.249 150.07 516.301 149.911 516.314 149.749L516.323 149.627C516.329 149.546 516.332 149.506 516.332 149.506C516.413 149.512 516.457 149.474 516.463 149.393L516.527 148.542C516.452 148.455 516.418 148.37 516.424 148.289C516.436 148.127 516.402 148.043 516.32 148.037C516.327 147.956 516.336 147.834 516.348 147.672L516.357 147.55C516.282 147.463 516.245 147.419 516.245 147.419C516.251 147.338 516.216 147.254 516.141 147.167C516.135 147.248 516.095 147.245 516.02 147.158L516.029 147.036C515.948 147.03 515.91 146.986 515.916 146.905L515.795 146.896C515.795 146.896 515.717 146.849 515.561 146.756L514.709 146.692C514.628 146.686 514.584 146.723 514.578 146.804C514.335 146.786 514.17 146.814 514.082 146.889L513.839 146.871C513.671 146.94 513.543 147.012 513.456 147.087C513.369 147.162 513.241 147.234 513.072 147.303C512.736 147.44 512.48 147.584 512.306 147.734C512.219 147.809 512.044 147.959 511.783 148.184C511.265 148.553 510.786 148.965 510.343 149.421C509.733 149.946 509.337 150.324 509.157 150.555C508.621 151.168 508.26 151.63 508.074 151.942C507.339 153.028 506.645 154.118 505.992 155.211C505.339 156.303 504.685 157.396 504.032 158.489Z" fill="#E5BD5B"/>
<path d="M591.642 186.259C592.291 186.307 592.763 186.547 593.056 186.977C593.35 187.407 593.476 187.906 593.433 188.473C593.396 188.96 593.2 189.394 592.845 189.775C592.49 190.156 591.989 190.322 591.34 190.273C583.716 189.698 576.801 191.624 570.595 196.05C569.56 196.788 568.479 197.604 567.352 198.497C566.23 199.31 565.03 200.076 563.753 200.795C562.562 201.44 561.306 201.875 559.984 202.102C558.662 202.328 557.327 202.187 555.979 201.677C555.03 201.28 554.215 200.729 553.534 200.025C552.934 199.327 552.424 198.514 552.005 197.585C551.855 197.411 551.717 197.074 551.592 196.575C551.466 196.076 551.3 195.575 551.093 195.07C550.887 194.565 550.677 194.1 550.464 193.676C550.333 193.259 550.186 193.044 550.024 193.031C549.78 193.013 549.487 193.113 549.144 193.332C548.802 193.551 548.543 193.735 548.369 193.885C548.194 194.035 547.979 194.182 547.724 194.326C547.468 194.47 547.213 194.614 546.957 194.758C546.446 195.046 545.935 195.333 545.424 195.621C544.919 195.828 544.454 196.037 544.031 196.25C541.999 197.239 539.767 198.172 537.335 199.049C536.413 199.387 535.409 199.719 534.324 200.045C533.245 200.29 532.172 200.454 531.106 200.537C530.127 200.544 529.116 200.427 528.074 200.186C527.032 199.944 526.089 199.465 525.246 198.749C523.646 197.242 522.926 195.434 523.085 193.325C523.163 191.211 523.715 189.295 524.742 187.578C525.955 185.548 527.578 184.039 529.61 183.051C531.561 182.056 533.644 181.479 535.858 181.319C537.087 181.249 538.269 181.257 539.404 181.342C540.627 181.353 541.843 181.444 543.054 181.617C544.102 181.778 545.104 182.016 546.058 182.333C547.094 182.656 547.987 183.253 548.737 184.126C549.106 184.643 549.229 185.182 549.105 185.744C548.981 186.305 548.701 186.774 548.265 187.149C547.916 187.449 547.495 187.621 547.002 187.665C546.516 187.628 546.047 187.348 545.598 186.825C544.998 186.127 544.089 185.733 542.873 185.641C541.656 185.549 540.602 185.47 539.71 185.403C538.574 185.317 537.433 185.312 536.285 185.389C535.144 185.385 533.987 185.583 532.815 185.984C532.06 186.253 531.291 186.725 530.506 187.4C529.646 187.988 528.939 188.71 528.385 189.565C527.756 190.333 527.324 191.198 527.088 192.159C526.859 193.039 526.954 193.943 527.373 194.872C527.724 195.633 528.298 196.124 529.097 196.348C529.815 196.565 530.626 196.626 531.53 196.531C532.441 196.355 533.314 196.135 534.149 195.872C535.072 195.534 535.826 195.265 536.412 195.064C538.588 194.331 540.567 193.501 542.35 192.575C543.285 192.075 544.223 191.534 545.164 190.952C546.105 190.371 547.081 189.873 548.091 189.46C549.107 188.966 550.136 188.839 551.178 189.081C552.22 189.323 553.029 189.955 553.604 190.977C554.042 191.662 554.392 192.423 554.656 193.258C554.919 194.094 555.226 194.892 555.576 195.652C555.927 196.413 556.33 197.014 556.786 197.456C557.323 197.905 558.044 198.081 558.948 197.986C560.102 197.829 561.274 197.427 562.465 196.783C562.465 196.783 562.633 196.714 562.97 196.577L562.979 196.455C563.06 196.461 563.144 196.427 563.231 196.352C563.406 196.202 563.537 196.089 563.624 196.014C563.792 195.945 563.964 195.836 564.138 195.686C564.568 195.392 564.957 195.095 565.306 194.795C565.655 194.495 566.044 194.198 566.474 193.904C567.428 193.161 568.378 192.457 569.325 191.795C570.353 191.138 571.419 190.525 572.522 189.956C575.495 188.386 578.594 187.314 581.818 186.741C585.042 186.169 588.317 186.008 591.642 186.259Z" fill="#E5BD5B"/>
<path d="M700.515 166.081C701.164 166.13 701.636 166.369 701.929 166.799C702.223 167.229 702.352 167.688 702.315 168.174C702.278 168.661 702.08 169.135 701.718 169.597C701.363 169.978 700.862 170.145 700.213 170.096C697.449 169.969 693.874 169.781 689.489 169.532C685.19 169.208 680.727 168.912 676.098 168.645C671.469 168.378 666.961 168.119 662.576 167.87C658.277 167.546 654.749 167.28 651.992 167.072C651.326 168.327 650.66 169.582 649.995 170.837C649.417 172.017 648.835 173.237 648.251 174.498C645.739 179.692 643.308 184.892 640.958 190.098C638.689 195.31 636.573 200.657 634.61 206.137C632.741 211.46 631.105 216.924 629.704 222.528C629.127 224.768 628.663 227.14 628.312 229.642C627.879 232.137 628.272 234.492 629.492 236.704C629.774 237.296 629.815 237.83 629.616 238.304C629.417 238.779 629.106 239.122 628.682 239.335C628.177 239.541 627.644 239.583 627.082 239.459C626.514 239.416 626.09 239.099 625.808 238.506C624.382 235.789 623.863 232.936 624.251 229.947C624.552 227.034 625.053 224.176 625.754 221.374C628.109 211.764 631.258 202.458 635.199 193.457C639.059 184.45 643.197 175.545 647.612 166.742C642.827 166.382 638.079 166.065 633.369 165.791C628.665 165.437 623.924 165.038 619.145 164.597C618.496 164.548 618.025 164.308 617.731 163.878C617.437 163.448 617.308 162.99 617.345 162.503C617.388 161.936 617.587 161.461 617.942 161.08C618.297 160.699 618.799 160.533 619.447 160.582C624.557 160.967 629.585 161.346 634.533 161.719C639.48 162.092 644.471 162.427 649.505 162.725C650.159 161.633 650.774 160.496 651.353 159.317C651.931 158.137 652.506 156.997 653.079 155.899C653.284 155.343 653.598 154.959 654.022 154.746C654.533 154.458 655.066 154.417 655.622 154.622C656.096 154.821 656.477 155.176 656.765 155.687C657.134 156.204 657.175 156.738 656.889 157.287C655.838 159.328 654.877 161.254 654.007 163.065C656.602 163.26 659.968 163.514 664.104 163.826C668.327 164.063 672.669 164.349 677.13 164.685C681.678 164.947 686.061 165.236 690.278 165.554C694.501 165.791 697.914 165.966 700.515 166.081Z" fill="#E5BD5B"/>
<path d="M686.269 193.269C686.917 193.318 687.386 193.598 687.673 194.109C687.967 194.539 688.096 194.997 688.059 195.484C688.023 195.971 687.824 196.445 687.463 196.907C687.108 197.288 686.606 197.454 685.957 197.405C683.199 197.197 680.439 197.03 677.675 196.903C674.911 196.777 672.139 196.772 669.357 196.888C668.29 196.971 667.183 197.051 666.035 197.127C664.969 197.21 663.893 197.414 662.808 197.74L662.687 197.731C662.54 199.678 661.875 201.463 660.692 203.086C659.522 204.548 658.095 205.623 656.412 206.312C654.735 206.919 653.001 207.197 651.211 207.143C649.339 207.084 647.751 206.515 646.445 205.438C645.14 204.361 644.479 202.843 644.464 200.884C644.442 199.007 644.904 197.206 645.85 195.483C646.714 193.754 647.807 192.246 649.127 190.959C649.663 190.347 650.246 190.187 650.876 190.479C651.513 190.69 651.972 191.092 652.254 191.684C652.353 191.447 652.615 191.222 653.039 191.009C654.509 189.896 656.04 189.604 657.631 190.132C659.304 190.666 660.616 191.662 661.566 193.12C661.641 193.207 661.747 193.419 661.885 193.756L664.13 193.191C667.847 192.574 671.533 192.362 675.189 192.556C678.926 192.756 682.619 192.994 686.269 193.269ZM655.224 194.477C654.95 194.864 654.888 195.145 655.038 195.319C655.269 195.5 655.584 195.646 655.984 195.758C656.627 195.888 657.328 195.777 658.089 195.427C657.726 194.829 657.27 194.387 656.721 194.1C656.258 193.739 655.76 193.865 655.224 194.477ZM655.124 202.3C656.302 201.817 657.264 200.952 658.011 199.703C656.521 199.999 655.145 199.854 653.884 199.27C652.86 198.785 652.092 198.156 651.579 197.383C651.148 196.617 650.925 195.784 650.911 194.886C650.189 195.81 649.536 196.903 648.951 198.164C648.448 199.431 648.359 200.607 648.685 201.692C648.886 202.278 649.223 202.67 649.698 202.869C650.253 203.074 650.858 203.161 651.513 203.129C652.249 203.102 652.907 203.03 653.487 202.91C654.154 202.716 654.7 202.512 655.124 202.3Z" fill="#E5BD5B"/>
<path d="M745.484 197.977C745.977 197.933 746.367 198.166 746.655 198.677C746.948 199.107 747.121 199.528 747.171 199.94C747.128 200.507 746.892 200.938 746.462 201.232C746.038 201.445 745.62 201.576 745.209 201.627C743.331 201.649 741.488 201.754 739.679 201.944C737.877 202.053 736.027 202.24 734.131 202.505C732.566 202.713 731.038 202.965 729.548 203.26C728.063 203.475 726.573 203.77 725.076 204.147C724.415 204.26 723.792 204.417 723.206 204.618C722.62 204.818 722.037 204.978 721.457 205.097L719.577 205.69L719.455 205.681C719.449 205.762 719.365 205.796 719.203 205.784C718.866 205.922 718.573 206.022 718.324 206.085C717.314 206.498 716.263 206.908 715.172 207.315C714.162 207.729 713.149 208.182 712.133 208.677C710.188 209.591 708.281 210.548 706.411 211.549C704.541 212.55 702.631 213.548 700.68 214.542C699.658 215.118 698.639 215.653 697.623 216.147C696.607 216.642 695.547 217.173 694.444 217.743C693.852 218.024 693.219 218.303 692.546 218.578C691.947 218.941 691.286 219.054 690.562 218.918C689.67 218.851 688.881 218.506 688.193 217.883C687.581 217.348 687.187 216.625 687.011 215.714C686.892 215.134 686.891 214.604 687.009 214.124C687.127 213.643 687.244 213.163 687.362 212.682C687.598 211.721 687.818 210.963 688.023 210.407C688.252 209.528 688.519 208.691 688.824 207.899C689.128 207.106 689.433 206.313 689.737 205.52C690.433 203.86 691.292 202.212 692.312 200.576C691.32 200.746 690.263 200.707 689.14 200.459C687.936 200.205 686.877 199.636 685.965 198.752C685.059 197.786 684.449 196.68 684.136 195.433C684.01 194.934 684.084 194.491 684.358 194.104C684.632 193.717 685.018 193.46 685.517 193.335C686.016 193.209 686.459 193.283 686.846 193.557C687.233 193.831 687.49 194.218 687.615 194.716C687.69 194.804 687.725 194.888 687.719 194.969L687.709 195.091C687.79 195.097 687.865 195.184 687.934 195.352C688.003 195.52 688 195.561 687.925 195.474C688 195.561 688.075 195.648 688.15 195.735C688.231 195.742 688.309 195.788 688.384 195.875C688.378 195.957 688.416 196 688.497 196.006L688.609 196.137C688.759 196.312 688.912 196.445 689.068 196.539C689.068 196.539 689.146 196.585 689.302 196.679L689.424 196.688C689.505 196.694 689.543 196.738 689.537 196.819C689.618 196.825 689.739 196.834 689.902 196.846C689.977 196.933 690.055 196.98 690.136 196.986L690.257 196.995C691.15 197.063 692.054 196.968 692.971 196.711C693.794 196.609 694.754 196.315 695.851 195.827C696.774 195.488 697.498 195.624 698.023 196.235C698.241 196.578 698.376 196.955 698.427 197.367C698.477 197.778 698.369 198.137 698.101 198.443C697.005 199.992 695.991 201.547 695.058 203.108C694.211 204.593 693.437 206.207 692.735 207.949C692.343 208.816 691.992 209.687 691.682 210.561C691.452 211.441 691.223 212.321 690.993 213.201C690.894 213.438 690.835 213.678 690.817 213.921C690.804 214.084 690.749 214.283 690.649 214.52L690.603 215.129L690.725 215.138L690.716 215.26L691.081 215.287C691.417 215.149 691.714 215.009 691.969 214.865C692.387 214.733 692.854 214.483 693.371 214.114C693.876 213.907 694.381 213.701 694.886 213.494C695.397 213.206 695.908 212.919 696.42 212.631C697.354 212.13 698.289 211.63 699.224 211.129C700.24 210.635 701.216 210.138 702.151 209.637C704.021 208.636 705.847 207.673 707.63 206.747C709.493 205.827 711.395 204.951 713.333 204.118C715.521 203.223 717.741 202.452 719.992 201.806C722.249 201.079 724.537 200.477 726.857 199.999C729.925 199.333 733.019 198.873 736.137 198.619C739.256 198.364 742.371 198.151 745.484 197.977Z" fill="#E5BD5B"/>
<path d="M745.43 197.484C746.022 197.202 746.553 197.201 747.021 197.481C747.495 197.68 747.836 198.032 748.042 198.537C748.255 198.961 748.3 199.454 748.176 200.015C748.139 200.502 747.825 200.886 747.232 201.168C746.896 201.306 746.597 201.487 746.335 201.712C746.073 201.937 745.812 202.162 745.55 202.387C745.201 202.687 744.619 203.377 743.803 204.457C742.907 205.532 742.045 206.69 741.217 207.933C740.389 209.175 739.77 210.352 739.36 211.463C738.95 212.574 739.02 213.273 739.569 213.559C739.813 213.577 740.018 213.552 740.187 213.483C740.605 213.351 740.988 213.136 741.337 212.836C741.686 212.536 742.034 212.236 742.383 211.936C743.866 210.661 745.274 209.299 746.606 207.85C748.02 206.407 749.584 205.138 751.298 204.044C752.07 203.531 753.008 202.99 754.112 202.42C755.221 201.77 756.315 201.322 757.394 201.077C758.554 200.839 759.655 200.84 760.697 201.082C761.745 201.242 762.598 201.837 763.254 202.865C763.773 203.557 764.005 204.267 763.95 204.997C763.976 205.733 763.877 206.501 763.654 207.299C763.548 207.618 763.443 207.936 763.337 208.254C763.232 208.573 763.126 208.891 763.021 209.209C762.927 209.365 762.881 209.443 762.881 209.443C762.968 209.368 762.971 209.328 762.89 209.322C763.476 209.121 764.037 208.715 764.572 208.103C764.927 207.722 765.239 207.378 765.506 207.072C765.855 206.772 766.245 206.475 766.675 206.181C767.372 205.581 768.189 205.031 769.124 204.531C770.065 203.949 770.993 203.53 771.91 203.273C772.989 203.028 774.006 203.064 774.961 203.38C775.997 203.703 776.808 204.294 777.396 205.154C777.978 206.095 778.272 207.056 778.28 208.035C778.288 209.014 778.292 210.034 778.294 211.095C778.34 212.648 779.062 213.355 780.459 213.215C781.363 213.12 782.121 212.81 782.731 212.286C783.429 211.686 784.086 211.083 784.703 210.477C787.774 207.609 791.195 205.501 794.967 204.154C798.826 202.732 802.824 202.177 806.96 202.489C807.609 202.538 808.08 202.777 808.374 203.207C808.668 203.637 808.797 204.096 808.76 204.582C808.723 205.069 808.524 205.543 808.163 206.005C807.808 206.386 807.306 206.553 806.657 206.504C801.71 206.131 797.064 207.167 792.72 209.613C791.698 210.188 790.714 210.807 789.766 211.47C788.9 212.139 788.028 212.889 787.15 213.72C786.353 214.557 785.44 215.304 784.412 215.96C783.465 216.623 782.414 217.033 781.26 217.191C780.356 217.286 779.461 217.259 778.575 217.111C777.689 216.962 776.899 216.617 776.206 216.076C775.281 215.354 774.694 214.494 774.443 213.496C774.279 212.423 774.24 211.319 774.325 210.184C774.356 209.778 774.393 209.292 774.435 208.724C774.478 208.156 774.347 207.738 774.04 207.471C773.734 207.203 773.373 207.135 772.955 207.267C772.624 207.323 772.291 207.42 771.954 207.558C771.019 208.059 770.159 208.646 769.374 209.321C768.595 209.915 767.851 210.593 767.141 211.355C766.35 212.111 765.449 212.696 764.44 213.109C763.511 213.528 762.494 213.492 761.389 213.001C759.566 212.293 758.732 210.925 758.884 208.898C758.927 208.33 759.098 207.69 759.396 206.979C759.775 206.273 759.98 205.718 760.011 205.312C759.942 205.144 759.864 205.097 759.777 205.172C759.777 205.172 759.78 205.132 759.786 205.05C759.78 205.132 759.817 205.175 759.899 205.181C760.061 205.193 760.061 205.193 759.899 205.181C759.742 205.088 759.705 205.044 759.786 205.05C759.948 205.063 759.867 205.057 759.543 205.032L759.299 205.014C759.218 205.008 759.134 205.042 759.047 205.117C759.047 205.117 759.131 205.083 759.299 205.014C757.99 205.078 756.356 205.648 754.399 206.724C752.529 207.725 750.978 208.832 749.744 210.044C748.773 211.031 747.621 212.249 746.288 213.698C745.042 215.073 743.827 216.041 742.643 216.605C741.87 217.117 741.029 217.462 740.118 217.638C739.208 217.814 738.322 217.665 737.46 217.193C736.518 216.714 735.918 216.016 735.661 215.099C735.328 214.096 735.24 213.11 735.394 212.143C735.555 211.095 736.017 209.825 736.782 208.333C737.466 206.834 738.309 205.389 739.311 203.996C740.232 202.598 741.266 201.33 742.412 200.193C743.483 198.968 744.489 198.066 745.43 197.484Z" fill="#E5BD5B"/>
<path d="M851.273 206.319C851.648 206.755 851.814 207.257 851.771 207.824C851.735 208.311 851.498 208.742 851.062 209.117C850.713 209.417 850.365 209.717 850.016 210.017C849.673 210.236 849.327 210.495 848.978 210.795C847.502 211.989 846.103 213.229 844.783 214.516C843.468 215.722 842.076 216.881 840.605 217.994C837.571 220.375 834.261 222.083 830.676 223.118C827.259 224.084 823.825 224.192 820.375 223.443C817.005 222.699 813.98 221.166 811.301 218.844C810.001 217.685 808.87 216.458 807.908 215.162C806.945 213.866 806.241 212.386 805.796 210.721C805.269 209.05 805.226 207.456 805.667 205.94C806.032 204.336 806.754 202.881 807.831 201.576C808.547 200.733 809.416 200.023 810.438 199.448C811.548 198.797 812.682 198.353 813.842 198.114C815.251 197.812 816.465 197.945 817.483 198.511C818.825 199.101 819.64 200.182 819.93 201.754C820.219 203.325 819.953 204.692 819.131 205.853C818.758 206.478 818.272 206.971 817.674 207.334C817.163 207.622 816.574 207.863 815.906 208.057C814.903 208.389 813.83 208.553 812.688 208.549C811.628 208.55 810.577 208.43 809.535 208.189L809.291 208.17L809.264 208.535C809.252 208.698 809.242 208.819 809.236 208.9C809.317 208.906 809.355 208.95 809.349 209.031C809.474 209.53 809.531 209.86 809.519 210.023C809.6 210.029 809.637 210.072 809.631 210.154C809.706 210.241 809.741 210.325 809.734 210.406C809.728 210.487 809.763 210.571 809.838 210.658C809.976 210.995 810.116 211.291 810.26 211.547C810.398 211.883 810.542 212.139 810.692 212.313L810.804 212.444C810.798 212.525 810.836 212.569 810.917 212.575C810.911 212.656 810.983 212.784 811.133 212.958C811.351 213.301 811.761 213.821 812.361 214.519C812.661 214.868 812.926 215.133 813.157 215.313C813.307 215.488 813.423 215.578 813.504 215.584C813.498 215.665 813.535 215.709 813.616 215.715L813.729 215.846C814.266 216.294 814.766 216.699 815.228 217.06C815.771 217.427 816.355 217.797 816.979 218.171C819.327 219.489 822.051 220.143 825.151 220.132L825.638 220.169C825.638 220.169 825.722 220.135 825.89 220.066L826.012 220.075C826.255 220.093 826.626 220.04 827.125 219.914C827.537 219.864 827.908 219.81 828.238 219.753C828.569 219.697 828.943 219.602 829.361 219.471C829.778 219.339 830.071 219.239 830.24 219.17C830.489 219.107 830.823 219.01 831.24 218.878C831.577 218.741 831.914 218.603 832.25 218.465C832.587 218.327 832.964 218.193 833.382 218.061C834.741 217.348 836.022 216.588 837.224 215.781C837.916 215.263 838.564 214.781 839.168 214.338C839.779 213.813 840.392 213.247 841.009 212.641C842.23 211.591 843.454 210.501 844.681 209.37C845.908 208.239 847.214 207.155 848.597 206.117C849.027 205.823 849.485 205.695 849.972 205.731C850.464 205.687 850.898 205.883 851.273 206.319ZM814.956 204.438C815.043 204.363 815.087 204.325 815.087 204.325C815.006 204.319 814.962 204.356 814.956 204.438ZM810.698 204.117C810.611 204.192 810.564 204.27 810.558 204.351C810.558 204.351 810.514 204.388 810.427 204.463C811.145 204.68 811.915 204.739 812.739 204.637L813.225 204.674C813.387 204.686 813.509 204.696 813.59 204.702C813.677 204.627 813.802 204.595 813.964 204.608C814.133 204.539 814.257 204.507 814.338 204.513C814.501 204.526 814.666 204.497 814.834 204.428L814.956 204.438L814.965 204.316L815.087 204.325C815.255 204.256 815.339 204.222 815.339 204.222C815.426 204.147 815.554 204.075 815.723 204.006L815.984 203.781C815.99 203.7 816.034 203.662 816.115 203.669L816.198 202.574C816.123 202.486 816.091 202.362 816.103 202.199C816.022 202.193 815.985 202.15 815.991 202.069L815.878 201.938L815.766 201.807L815.158 201.761C815.077 201.755 814.992 201.789 814.905 201.864C814.905 201.864 814.865 201.861 814.784 201.855C814.621 201.843 814.372 201.906 814.035 202.044L813.914 202.034C813.832 202.028 813.789 202.066 813.783 202.147C813.452 202.204 813.031 202.376 812.52 202.663C812.184 202.801 811.969 202.948 811.875 203.104C812.056 202.873 812.059 202.833 811.885 202.983C811.791 203.139 811.704 203.214 811.623 203.208C811.448 203.358 811.315 203.511 811.221 203.667C811.14 203.661 811.053 203.736 810.96 203.892C810.872 203.967 810.788 204.001 810.707 203.995L810.698 204.117ZM815.878 201.938C815.878 201.938 815.841 201.894 815.766 201.807C815.76 201.888 815.797 201.932 815.878 201.938Z" fill="#E5BD5B"/>
<path d="M848.285 206.828C848.496 206.191 848.851 205.81 849.35 205.684C849.855 205.478 850.345 205.474 850.819 205.673C851.3 205.791 851.684 206.105 851.971 206.616C852.265 207.046 852.307 207.579 852.096 208.216C851.586 209.564 851.236 210.965 851.045 212.419C850.854 213.873 850.666 215.286 850.48 216.658C850.419 217.469 850.333 218.075 850.221 218.474C850.203 218.717 850.216 219.085 850.26 219.578C850.311 219.99 850.249 220.271 850.075 220.421L850.056 220.664C849.987 220.495 849.95 220.452 849.944 220.533C849.938 220.614 850.022 220.58 850.196 220.43C850.47 220.043 850.738 219.736 850.999 219.511C851.342 219.293 851.648 219.03 851.915 218.724C852.812 217.65 853.752 216.538 854.736 215.389C855.801 214.245 856.86 213.183 857.912 212.202C859.052 211.146 860.264 210.218 861.548 209.418C862.832 208.617 864.181 208.026 865.597 207.643C866.763 207.323 867.951 207.25 869.162 207.422C870.378 207.514 871.449 207.921 872.373 208.643C873.534 209.465 874.26 210.661 874.549 212.233C874.669 212.813 874.704 213.427 874.655 214.076C874.693 214.65 874.853 215.233 875.135 215.825C875.617 217.003 876.55 217.604 877.935 217.627C879.401 217.656 880.636 217.504 881.64 217.172C883.149 216.633 884.62 216.051 886.054 215.425C887.494 214.718 889.009 214.098 890.598 213.565C896.709 211.497 903.073 210.386 909.691 210.233C910.265 210.195 910.736 210.434 911.105 210.951C911.48 211.387 911.649 211.849 911.612 212.335C911.563 212.984 911.324 213.455 910.894 213.749C910.464 214.043 909.962 214.209 909.388 214.247C905.465 214.36 901.635 214.846 897.9 215.706C894.165 216.566 890.527 217.76 886.986 219.288C885.465 219.989 883.907 220.646 882.311 221.26C880.715 221.874 879.071 222.035 877.38 221.745C876.014 221.479 874.75 220.935 873.588 220.113C872.427 219.291 871.614 218.17 871.15 216.748C870.875 216.075 870.727 215.33 870.707 214.513C870.774 213.621 870.626 212.875 870.264 212.277C869.745 211.585 868.952 211.281 867.886 211.364C866.576 211.428 865.32 211.864 864.117 212.67C863.001 213.402 861.964 214.18 861.005 215.005C859.783 216.055 858.637 217.192 857.566 218.416C856.495 219.64 855.427 220.824 854.362 221.967C853.827 222.579 853.213 223.145 852.522 223.664C851.911 224.189 851.194 224.502 850.371 224.603C848.718 224.886 847.46 224.261 846.597 222.728C846.028 221.624 845.839 220.346 846.03 218.892C846.221 217.438 846.4 216.147 846.567 215.018C846.833 213.651 847.058 212.281 847.243 210.909C847.429 209.536 847.776 208.176 848.285 206.828Z" fill="#E5BD5B"/>
<path d="M974.001 186.696C974.65 186.745 975.121 186.985 975.415 187.414C975.709 187.844 975.838 188.303 975.801 188.789C975.764 189.276 975.565 189.75 975.204 190.213C974.849 190.594 974.347 190.76 973.699 190.711C970.935 190.584 967.36 190.396 962.975 190.147C958.676 189.823 954.212 189.527 949.583 189.26C944.954 188.993 940.447 188.734 936.061 188.485C931.763 188.161 928.235 187.895 925.477 187.688C924.812 188.942 924.146 190.197 923.481 191.452C922.902 192.632 922.321 193.852 921.737 195.113C919.224 200.307 916.793 205.507 914.443 210.713C912.175 215.926 910.059 221.272 908.096 226.752C906.226 232.076 904.591 237.539 903.19 243.143C902.613 245.384 902.149 247.755 901.797 250.257C901.365 252.753 901.758 255.107 902.978 257.319C903.259 257.912 903.301 258.445 903.102 258.919C902.903 259.394 902.592 259.737 902.168 259.95C901.663 260.157 901.13 260.198 900.568 260.074C900 260.031 899.576 259.714 899.294 259.122C897.868 256.404 897.348 253.551 897.737 250.562C898.038 247.649 898.539 244.791 899.24 241.989C901.595 232.379 904.744 223.073 908.685 214.072C912.545 205.065 916.682 196.16 921.098 187.358C916.313 186.997 911.565 186.68 906.855 186.406C902.151 186.052 897.41 185.653 892.631 185.212C891.982 185.163 891.51 184.923 891.217 184.493C890.923 184.063 890.794 183.605 890.831 183.118C890.874 182.551 891.073 182.076 891.427 181.695C891.782 181.314 892.284 181.148 892.933 181.197C898.043 181.582 903.071 181.961 908.018 182.334C912.966 182.707 917.957 183.043 922.991 183.34C923.644 182.248 924.26 181.112 924.839 179.932C925.417 178.752 925.992 177.612 926.564 176.514C926.769 175.958 927.084 175.574 927.508 175.361C928.019 175.074 928.552 175.032 929.107 175.237C929.582 175.436 929.963 175.791 930.251 176.302C930.62 176.819 930.661 177.353 930.375 177.902C929.324 179.944 928.363 181.869 927.492 183.68C930.088 183.875 933.453 184.129 937.59 184.441C941.813 184.678 946.155 184.964 950.616 185.3C955.164 185.562 959.546 185.851 963.764 186.169C967.987 186.406 971.4 186.582 974.001 186.696Z" fill="#E5BD5B"/>
<path d="M982.981 215.757C983.63 215.806 984.102 216.046 984.395 216.476C984.689 216.906 984.815 217.405 984.772 217.972C984.735 218.459 984.539 218.893 984.184 219.274C983.829 219.655 983.328 219.821 982.679 219.772C975.055 219.197 968.14 221.123 961.934 225.549C960.899 226.287 959.818 227.102 958.691 227.996C957.569 228.809 956.369 229.575 955.092 230.294C953.901 230.939 952.645 231.374 951.323 231.601C950.001 231.827 948.666 231.686 947.318 231.176C946.369 230.779 945.554 230.228 944.873 229.524C944.273 228.826 943.763 228.013 943.344 227.084C943.194 226.91 943.056 226.573 942.931 226.074C942.805 225.575 942.639 225.073 942.432 224.568C942.226 224.063 942.016 223.599 941.803 223.175C941.672 222.757 941.525 222.542 941.363 222.53C941.119 222.512 940.826 222.612 940.483 222.831C940.141 223.05 939.882 223.234 939.708 223.384C939.533 223.534 939.318 223.681 939.063 223.825C938.807 223.969 938.552 224.113 938.296 224.257C937.785 224.544 937.274 224.832 936.763 225.12C936.258 225.326 935.793 225.536 935.37 225.749C933.338 226.738 931.106 227.67 928.674 228.548C927.752 228.886 926.748 229.218 925.663 229.544C924.584 229.789 923.511 229.953 922.445 230.036C921.466 230.043 920.455 229.926 919.413 229.685C918.371 229.443 917.428 228.964 916.585 228.248C914.985 226.741 914.265 224.933 914.424 222.824C914.502 220.709 915.054 218.794 916.081 217.076C917.294 215.047 918.917 213.538 920.949 212.55C922.9 211.555 924.983 210.978 927.197 210.818C928.426 210.748 929.608 210.755 930.743 210.841C931.966 210.852 933.182 210.943 934.393 211.116C935.441 211.277 936.443 211.515 937.397 211.832C938.433 212.155 939.326 212.752 940.076 213.624C940.445 214.142 940.568 214.681 940.444 215.243C940.32 215.804 940.04 216.272 939.604 216.647C939.255 216.947 938.834 217.12 938.341 217.164C937.855 217.127 937.386 216.847 936.937 216.324C936.337 215.626 935.428 215.232 934.212 215.14C932.995 215.048 931.941 214.969 931.049 214.901C929.913 214.816 928.772 214.811 927.624 214.888C926.483 214.883 925.326 215.082 924.154 215.483C923.399 215.752 922.63 216.224 921.845 216.899C920.985 217.487 920.278 218.208 919.724 219.064C919.095 219.832 918.663 220.697 918.427 221.658C918.198 222.538 918.293 223.442 918.712 224.371C919.063 225.131 919.637 225.623 920.436 225.847C921.154 226.064 921.965 226.125 922.869 226.03C923.78 225.854 924.653 225.634 925.488 225.371C926.411 225.033 927.165 224.763 927.751 224.563C929.927 223.83 931.906 223 933.689 222.074C934.624 221.574 935.562 221.033 936.503 220.451C937.444 219.87 938.42 219.372 939.43 218.959C940.446 218.464 941.475 218.338 942.517 218.58C943.559 218.822 944.368 219.453 944.943 220.476C945.381 221.161 945.731 221.922 945.995 222.757C946.258 223.593 946.565 224.391 946.915 225.151C947.266 225.912 947.669 226.513 948.125 226.955C948.662 227.403 949.383 227.58 950.287 227.485C951.441 227.327 952.613 226.926 953.804 226.282C953.804 226.282 953.972 226.213 954.309 226.075L954.318 225.954C954.399 225.96 954.483 225.925 954.57 225.85C954.745 225.7 954.876 225.588 954.963 225.513C955.131 225.444 955.302 225.335 955.477 225.185C955.907 224.891 956.296 224.594 956.645 224.294C956.994 223.994 957.384 223.697 957.813 223.403C958.767 222.659 959.717 221.956 960.664 221.294C961.692 220.637 962.758 220.024 963.861 219.455C966.834 217.884 969.933 216.813 973.157 216.24C976.381 215.668 979.656 215.507 982.981 215.757Z" fill="#E5BD5B"/>
</svg>
